<?xml version="1.0" standalone="no"?>
<!DOCTYPE svg PUBLIC "-//W3C//DTD SVG 20010904//EN"
 "http://www.w3.org/TR/2001/REC-SVG-20010904/DTD/svg10.dtd">
<svg version="1.0" xmlns="http://www.w3.org/2000/svg"
 width="1600.000000pt" height="1600.000000pt" viewBox="0 0 1600.000000 1600.000000"
 preserveAspectRatio="xMidYMid meet">

<g transform="translate(0.000000,1600.000000) scale(0.100000,-0.100000)"
fill="#000000" stroke="none">
<path d="M7486 14435 c-204 -45 -422 -157 -626 -321 -96 -77 -295 -286 -388
-405 -11 -15 -3 -22 66 -57 l79 -41 38 52 c233 314 512 540 766 620 102 32
131 37 274 40 83 2 159 7 170 11 11 5 -9 -11 -44 -34 -116 -75 -207 -166 -291
-289 -23 -34 -43 -61 -45 -61 -2 0 -36 17 -77 39 -40 21 -122 60 -181 85 -93
41 -111 46 -125 34 -36 -28 -67 -54 -95 -79 l-30 -25 81 -42 c300 -155 494
-324 588 -512 32 -64 64 -165 64 -204 0 -19 0 -19 -21 0 -12 10 -46 56 -77
102 -78 118 -110 139 -252 162 -107 18 -179 39 -228 67 -37 22 -41 23 -35 6
44 -119 164 -257 260 -299 46 -21 68 -24 138 -22 77 3 85 1 110 -22 39 -35 69
-85 95 -157 18 -49 21 -77 18 -137 -5 -102 -14 -108 -83 -63 -30 21 -63 44
-73 52 -9 8 -55 45 -102 81 -98 78 -377 355 -416 413 -33 51 -33 78 5 185 17
49 31 103 31 121 0 43 -27 119 -65 183 l-32 52 -26 -72 c-14 -40 -35 -99 -46
-130 -31 -86 -31 -89 42 -280 l25 -66 -46 22 c-26 12 -130 63 -232 113 -274
135 -433 183 -608 183 -100 0 -121 -12 -177 -95 -41 -62 -59 -75 -24 -17 100
162 248 288 425 362 115 48 173 60 319 66 127 6 131 7 180 40 28 18 63 46 78
62 l28 29 -83 11 c-108 16 -153 15 -279 -3 -264 -37 -446 -119 -613 -275 -47
-44 -136 -150 -168 -202 -12 -18 -23 -25 -36 -21 -40 10 -293 -77 -422 -146
-129 -68 -140 -76 -252 -164 -134 -105 -262 -268 -351 -448 -60 -121 -106
-296 -107 -404 0 -57 25 -181 51 -251 26 -71 94 -177 141 -220 63 -58 157
-122 237 -160 45 -22 81 -42 81 -46 0 -16 -44 -47 -84 -58 -42 -11 -127 -10
-361 5 -88 6 -91 6 -136 -24 -58 -39 -93 -89 -124 -177 -24 -67 -33 -154 -17
-154 5 0 21 14 38 31 16 17 79 55 139 85 61 29 137 76 169 103 53 45 65 50
122 56 34 4 67 6 73 4 6 -2 -21 -29 -60 -59 -178 -138 -335 -280 -405 -367
-36 -43 -70 -84 -76 -92 -26 -32 -96 -182 -117 -251 -57 -193 -57 -192 -135
-282 -23 -25 -45 -52 -51 -60 -38 -51 -46 -181 -16 -271 28 -88 129 -242 147
-225 4 4 1 41 -6 82 -14 80 -10 118 22 209 18 51 19 73 13 185 l-6 127 22 -35
22 -35 12 40 c7 22 20 81 30 130 25 128 57 193 163 328 50 63 138 143 238 215
41 30 42 30 61 11 19 -19 19 -19 48 28 28 43 30 45 33 22 2 -14 -9 -69 -23
-123 -14 -54 -25 -117 -25 -140 0 -57 23 -128 58 -179 34 -48 135 -147 171
-166 22 -12 23 -12 16 5 -26 62 -46 170 -53 283 -8 126 -9 131 -46 191 -54 87
-56 122 -14 185 35 52 104 110 172 144 63 32 263 98 271 90 10 -11 -168 -179
-189 -179 -26 0 -99 -68 -128 -117 -32 -57 -33 -60 -33 -178 0 -112 17 -215
35 -215 4 0 12 17 18 38 19 62 65 144 112 197 33 38 49 78 91 229 19 64 64
115 154 171 127 80 302 125 481 125 l85 0 -26 -34 c-41 -54 -96 -85 -191 -110
-141 -35 -177 -62 -243 -179 -32 -57 -54 -183 -49 -278 7 -112 14 -122 46 -67
43 72 103 139 177 193 92 69 95 73 143 190 22 55 50 109 61 121 12 12 54 36
94 52 71 30 72 31 93 11 24 -22 28 -23 46 -6 8 6 24 18 36 25 25 14 155 16
198 3 16 -5 47 -14 69 -20 142 -39 214 -68 284 -115 56 -37 48 -41 -108 -50
-195 -12 -243 -48 -347 -256 -32 -63 -70 -132 -86 -152 -33 -42 -32 -43 9 -27
15 6 37 15 48 19 11 5 43 16 70 25 155 52 250 126 320 250 46 80 73 97 154 99
88 2 195 -60 307 -176 102 -104 178 -230 234 -386 26 -75 36 -110 70 -257 62
-265 61 -798 -1 -1065 -43 -187 -128 -386 -223 -524 -91 -132 -223 -270 -336
-349 -76 -53 -219 -126 -305 -156 -101 -34 -257 -54 -370 -47 -55 4 -159 9
-231 12 l-131 7 -129 -41 c-134 -43 -172 -51 -339 -78 -145 -23 -453 -9 -647
30 -145 28 -343 103 -448 168 -111 70 -208 206 -224 316 -6 39 -5 42 11 33 44
-23 106 -123 132 -211 26 -87 31 -95 84 -125 28 -17 55 -31 59 -33 15 -7 8 37
-17 115 -64 204 -170 344 -307 408 -82 39 -82 39 -74 -68 13 -192 69 -320 193
-438 32 -31 80 -71 106 -88 46 -31 367 -191 384 -191 4 0 19 -9 32 -19 l25
-19 -13 -86 c-12 -82 -14 -86 -35 -80 -31 10 -78 34 -104 55 -45 35 -109 142
-125 209 -4 15 -21 33 -44 45 -21 11 -40 22 -43 25 -3 3 -20 13 -38 23 l-33
19 7 -29 c58 -248 143 -385 286 -455 104 -52 130 -59 243 -65 89 -4 140 0 240
23 58 12 211 92 285 147 115 87 114 86 350 123 52 8 124 18 160 21 l65 6 -21
-24 c-62 -71 -111 -166 -154 -299 -40 -121 -39 -131 3 -120 17 4 53 11 79 15
41 5 53 13 85 52 69 84 207 225 251 255 65 45 148 86 189 94 35 7 36 6 29 -22
-11 -46 -48 -136 -72 -174 -47 -75 -133 -133 -239 -161 -16 -4 -48 -13 -70
-18 -22 -6 -92 -22 -155 -36 -253 -56 -383 -93 -476 -136 l-45 -20 47 -60 c41
-53 50 -60 73 -55 14 3 49 11 76 17 28 6 68 15 90 20 22 5 56 11 75 13 19 2
25 2 13 -1 -19 -4 -22 -13 -28 -81 -7 -77 -21 -135 -40 -161 -27 -37 -81 -84
-123 -108 -25 -15 -154 -36 -179 -31 -10 3 15 8 56 12 l74 8 -7 106 c-6 94
-11 114 -43 180 -46 93 -132 175 -234 225 -124 60 -176 70 -200 41 -19 -23
-48 -110 -40 -121 3 -5 -7 5 -22 22 -35 37 -53 70 -83 153 -13 35 -26 67 -29
70 -5 5 -125 21 -125 17 0 -1 5 -28 10 -61 13 -71 23 -100 63 -183 31 -66 125
-171 152 -171 8 0 15 -4 15 -8 0 -5 12 -13 28 -19 l27 -11 -27 -1 c-16 -1 -28
-2 -28 -3 0 -2 7 -24 14 -49 62 -203 170 -301 374 -340 76 -14 176 0 260 37
64 28 169 130 200 194 28 59 62 193 62 248 l0 42 -47 1 c-48 1 -48 1 -13 9 57
14 264 40 363 46 117 7 124 2 138 -91 19 -132 -25 -318 -108 -462 -21 -36 -23
-45 -11 -56 7 -8 29 -42 48 -75 19 -34 40 -62 47 -62 30 0 125 155 158 258 10
29 21 52 26 52 13 0 58 -105 71 -163 19 -92 -6 -210 -65 -297 -36 -55 -95
-118 -122 -132 -11 -6 -17 -7 -13 -3 4 4 -5 37 -19 74 -14 36 -33 96 -43 132
-10 37 -31 91 -45 120 -34 66 -134 167 -200 201 -88 45 -88 45 -127 -14 -47
-73 -77 -140 -90 -203 -10 -52 -10 -52 -42 -45 -71 16 -135 53 -192 111 -63
64 -75 67 -182 51 l-44 -7 37 -55 c115 -170 243 -240 455 -248 133 -5 269 19
291 50 3 5 14 -13 23 -39 10 -26 30 -72 44 -101 29 -57 26 -56 102 -38 17 4
14 1 -10 -11 -21 -10 -59 -17 -95 -18 -72 0 -132 26 -202 90 -46 40 -52 43
-120 47 l-72 4 6 -26 c18 -82 97 -166 203 -218 73 -36 78 -37 190 -37 117 0
125 2 236 52 95 42 213 188 243 300 5 19 15 29 31 31 13 2 41 15 63 29 l40 25
-19 -28 c-40 -60 -49 -88 -49 -158 0 -54 6 -83 24 -121 29 -63 98 -159 145
-204 32 -31 44 -35 108 -41 l73 -7 -92 -2 c-51 0 -116 4 -145 10 -83 16 -206
68 -290 121 l-77 49 -73 -31 c-40 -17 -77 -35 -82 -40 -12 -12 113 -102 210
-150 162 -81 348 -115 559 -100 55 4 102 3 105 -1 9 -13 149 -83 240 -120 132
-53 244 -46 363 23 51 30 69 36 49 16 -15 -15 -15 -28 -1 -28 6 0 23 -8 37
-19 39 -26 119 -51 168 -51 23 0 62 8 86 19 56 24 133 59 183 83 25 12 33 13
21 4 -10 -8 -24 -17 -30 -19 -40 -15 102 -60 194 -61 55 -1 82 6 175 43 114
46 259 115 329 157 41 25 22 4 -25 -27 l-24 -17 50 -7 c27 -4 106 -5 175 -2
181 9 294 45 451 143 73 46 229 219 229 255 0 5 3 9 8 9 4 0 13 15 21 33 8 17
22 50 32 72 35 80 34 86 -15 128 -25 20 -49 37 -54 37 -6 0 -13 -12 -17 -27
-29 -119 -155 -279 -300 -381 -77 -54 -235 -111 -349 -126 -28 -3 -63 -16 -80
-29 -87 -65 -72 -44 29 42 150 127 212 234 222 380 l6 85 -42 -33 c-48 -38
-75 -72 -121 -154 -73 -131 -235 -261 -460 -370 -143 -68 -136 -66 -245 -87
-49 -10 -99 -21 -110 -25 -11 -5 -18 -5 -15 -2 9 10 203 107 215 107 5 0 19 7
29 15 18 13 13 17 -58 50 l-78 36 -105 -56 c-112 -58 -117 -60 -109 -47 3 5
-11 22 -32 38 -46 36 -112 98 -94 89 24 -13 329 275 401 379 62 90 80 148 63
205 -12 38 -22 48 -137 139 -28 22 -37 23 -57 5 -26 -22 -17 -4 23 47 37 46
93 160 118 239 32 99 28 141 -24 249 -25 51 -45 96 -45 101 0 5 -6 14 -14 20
-12 10 -15 6 -21 -21 -21 -98 -109 -352 -155 -447 l-36 -74 -62 58 c-70 65
-134 146 -174 220 -42 79 -71 181 -65 227 7 49 74 191 89 186 28 -10 88 -157
88 -218 0 -43 -24 -118 -57 -177 -13 -23 -23 -46 -23 -51 0 -5 20 -35 44 -66
l44 -57 61 68 c33 37 73 92 87 122 25 50 26 60 21 150 -8 137 -49 251 -158
436 -26 44 -58 100 -72 125 -13 24 -29 46 -35 48 -6 2 -21 -16 -33 -40 -12
-24 -45 -83 -74 -133 -149 -259 -191 -413 -150 -551 21 -71 83 -149 249 -314
117 -116 148 -142 156 -130 5 8 10 11 10 7 0 -10 -104 -150 -125 -167 -23 -19
-19 -30 30 -85 l44 -50 66 65 c36 36 82 86 102 113 19 26 40 47 45 47 6 0 3
-9 -7 -20 -20 -22 -23 -16 43 -90 12 -13 22 -32 22 -42 0 -22 -64 -130 -100
-171 l-28 -31 -48 39 c-70 56 -264 253 -304 308 -18 26 -37 47 -42 47 -10 0
-128 -91 -128 -99 1 -8 259 -272 344 -351 l69 -64 -64 -58 c-35 -31 -63 -62
-61 -68 5 -20 -31 7 -92 69 l-60 60 -35 -25 -36 -26 32 29 c17 15 61 53 97 83
36 30 66 58 66 62 0 3 -25 28 -56 54 -39 34 -59 45 -69 38 -15 -11 -188 -155
-226 -189 -38 -33 -216 -155 -227 -155 -7 0 -116 76 -167 117 -139 111 -150
120 -252 216 -46 42 -89 77 -95 77 -7 0 7 19 30 43 23 23 42 47 42 52 0 5 -15
25 -32 44 -18 19 10 -5 62 -53 52 -49 133 -114 179 -145 l83 -56 23 29 c34 43
45 93 45 207 0 92 -3 109 -25 144 -56 93 -56 94 -44 118 7 12 15 24 19 27 10
8 157 233 162 250 5 14 -101 230 -113 230 -5 0 -18 -29 -56 -122 -44 -108
-169 -340 -219 -407 l-56 -74 45 -45 45 -45 51 54 c50 52 74 61 51 20 -6 -12
-8 -26 -5 -31 9 -15 35 -119 35 -141 0 -18 -4 -17 -45 11 -70 48 -206 189
-256 265 -79 121 -105 197 -118 340 -6 76 -14 104 -51 183 -24 50 -46 92 -50
92 -13 0 -27 -24 -54 -92 -55 -139 -23 -331 81 -496 26 -40 117 -155 137 -171
9 -8 22 -24 28 -35 6 -12 8 -18 4 -15 -4 3 -39 -26 -78 -65 -40 -39 -59 -57
-44 -39 l28 31 -28 40 c-143 197 -176 247 -207 312 -67 141 -82 210 -81 370 0
121 1 128 38 219 38 94 82 173 121 220 11 14 32 38 47 55 l26 31 -5 -127 c-6
-129 4 -214 34 -285 7 -18 13 -35 13 -38 1 -12 134 -270 142 -273 4 -2 8 -8 8
-13 0 -12 107 -178 133 -207 l21 -22 18 27 c11 16 23 37 29 48 5 11 14 27 20
35 9 12 1 37 -39 115 -95 189 -128 284 -152 432 -12 73 -11 88 4 146 25 91 35
100 346 312 142 97 137 96 146 27 4 -31 4 -111 1 -178 -6 -119 -6 -122 22
-175 23 -43 112 -183 126 -197 1 -2 37 59 78 135 113 208 125 231 186 328 71
113 139 205 151 205 15 0 107 -130 186 -260 100 -167 99 -165 317 -610 80
-163 182 -334 228 -383 l20 -21 24 29 c13 17 24 25 25 18 0 -6 -3 -13 -8 -15
-16 -7 -100 -135 -112 -173 -17 -50 -17 -179 0 -231 6 -21 20 -58 31 -82 18
-39 21 -42 42 -31 77 41 253 186 250 207 0 8 20 -6 46 -32 l46 -46 36 38 c20
20 38 42 42 48 5 9 -228 254 -243 254 -3 0 -14 -14 -25 -30 -11 -16 -23 -30
-27 -30 -7 0 23 43 111 160 43 57 122 181 154 240 19 37 27 65 25 88 -5 41 -1
41 18 -3 20 -49 18 -126 -7 -209 -26 -85 -88 -201 -141 -262 -19 -21 -18 -22
26 -70 l44 -49 40 45 c159 180 232 342 232 511 0 105 -19 165 -69 217 -32 32
-226 168 -450 314 -80 52 -137 51 -205 -4 -12 -9 -32 -25 -45 -36 l-25 -19 26
-79 c14 -43 33 -105 42 -136 10 -32 22 -58 26 -58 5 0 35 23 66 50 31 28 61
50 66 50 16 0 143 -71 226 -126 1 -1 -2 -14 -9 -30 -6 -16 -15 -38 -19 -49 -4
-11 -15 -36 -23 -55 -9 -19 -24 -57 -35 -85 -31 -78 -135 -265 -147 -265 -3 0
5 19 16 43 l21 43 -42 90 c-126 266 -187 432 -223 609 -13 65 -17 349 -5 361
6 6 191 -107 208 -127 3 -3 43 -32 90 -64 126 -86 173 -135 195 -204 10 -31
37 -58 105 -102 75 -49 101 -62 108 -54 4 4 7 75 7 159 l0 153 40 -45 c88
-100 129 -173 166 -292 28 -94 31 -282 6 -370 -9 -30 -21 -73 -27 -95 -49
-169 -292 -480 -535 -686 -22 -19 -49 -43 -61 -54 -12 -11 -52 -45 -89 -75
-117 -95 -160 -133 -158 -141 2 -5 -5 -5 -15 -1 -66 29 -102 48 -102 54 0 5
-4 8 -9 8 -9 0 -42 22 -117 75 -10 7 -27 -3 -66 -42 -29 -29 -50 -54 -48 -56
56 -42 234 -154 288 -180 105 -51 118 -52 182 -17 30 17 70 37 88 46 17 8 32
16 32 18 0 3 -33 15 -72 27 -68 21 -126 51 -68 35 58 -16 89 -18 102 -7 7 7
36 29 64 50 121 89 266 213 390 334 l81 79 24 -59 c36 -91 83 -163 145 -223
l56 -55 53 60 54 59 -24 31 c-113 138 -168 277 -145 366 21 84 66 189 80 189
5 0 13 -12 16 -27 12 -48 80 -176 128 -240 26 -34 70 -81 99 -104 57 -46 176
-105 221 -111 42 -4 42 -21 0 -68 -48 -53 -120 -90 -176 -90 -42 0 -44 -1 -81
-66 -21 -36 -37 -67 -35 -69 1 -1 55 1 118 4 205 12 284 68 359 254 14 36 14
198 0 251 -28 103 -105 226 -140 226 -27 0 -96 -36 -149 -78 -25 -20 -47 -37
-49 -38 -2 -2 14 -25 34 -51 l37 -48 -42 45 c-40 43 -113 181 -145 275 -37
108 -50 286 -26 349 l12 29 127 -7 c70 -4 149 -12 176 -17 27 -5 64 -9 82 -9
34 0 34 0 34 -48 0 -81 28 -215 55 -267 50 -96 92 -134 215 -195 36 -18 66
-34 68 -35 8 -8 -31 -64 -70 -101 -43 -42 -119 -85 -170 -98 -27 -6 -28 -9
-28 -71 0 -35 4 -66 8 -69 13 -8 151 33 211 62 106 52 199 174 230 302 14 59
30 205 33 302 3 82 6 86 50 69 13 -5 51 -12 85 -16 60 -7 62 -6 77 22 29 53
19 -11 -12 -80 -32 -71 -111 -156 -173 -187 -36 -19 -39 -24 -39 -63 0 -23 -3
-53 -7 -66 -6 -22 -4 -23 23 -17 126 32 253 136 311 255 27 54 28 62 28 211 0
145 -2 158 -25 205 -18 36 -32 51 -49 53 -32 5 -107 -16 -159 -45 -96 -54
-152 -90 -145 -96 11 -12 0 -8 -106 38 -95 41 -223 85 -249 85 -6 0 -12 -12
-14 -27 -2 -20 -8 -6 -21 47 -34 140 -98 285 -172 390 -19 27 -35 53 -35 56 0
7 19 5 210 -21 229 -31 244 -36 369 -129 92 -68 155 -103 236 -131 56 -19 242
-48 256 -39 5 3 9 36 9 74 l0 68 -37 5 c-21 3 -55 9 -75 15 -41 11 -169 69
-178 80 -3 4 -18 16 -34 26 -15 10 -24 21 -20 26 5 4 61 10 124 14 132 7 150
1 190 -58 55 -80 63 -214 20 -331 -66 -180 -80 -230 -80 -280 0 -30 5 -57 11
-60 17 -11 126 113 158 179 48 102 52 116 58 215 5 83 -4 208 -24 342 -4 33
-2 38 32 59 21 13 81 42 134 65 67 29 100 49 108 66 21 41 14 4 -16 -85 -16
-47 -43 -104 -60 -125 -31 -38 -129 -111 -150 -111 -7 0 -11 -30 -11 -81 0
-78 1 -80 22 -73 30 9 157 91 192 123 67 62 119 174 161 349 16 65 22 76 54
96 60 38 164 157 198 226 53 109 80 245 67 330 -8 48 -20 50 -82 14 -164 -96
-247 -224 -317 -489 -36 -134 -47 -163 -40 -107 5 42 -7 55 -30 33 -10 -10
-138 -62 -210 -86 -93 -31 -259 -52 -489 -62 -205 -8 -405 22 -613 93 l-105
36 -131 -6 c-73 -3 -179 -9 -237 -12 -373 -22 -750 176 -999 523 -96 135 -201
370 -237 533 -58 260 -75 501 -54 735 37 409 103 638 245 860 102 158 183 223
340 270 33 9 64 21 68 25 4 4 -14 14 -40 22 l-47 15 30 16 c42 22 145 47 191
47 68 0 105 -20 188 -100 96 -93 126 -110 223 -122 78 -9 142 -34 206 -80 22
-16 41 -27 42 -25 7 6 -22 85 -58 159 -40 83 -122 173 -183 202 -56 27 -141
36 -260 30 -60 -4 -107 -3 -102 1 11 13 143 63 222 85 124 35 278 20 343 -35
15 -12 48 -60 74 -106 25 -46 57 -94 70 -106 77 -72 251 -89 413 -41 l40 11
-35 11 c-56 18 -89 40 -182 118 -80 68 -94 75 -165 92 -83 20 -193 67 -212 90
-29 35 214 48 390 22 100 -15 109 -18 178 -48 45 -20 144 -106 164 -143 6 -11
14 -74 18 -141 7 -136 10 -143 100 -241 35 -38 74 -96 100 -148 23 -47 45 -85
49 -85 9 0 14 25 30 145 11 77 10 102 -3 172 -25 133 -47 166 -193 290 -33 28
-68 66 -77 84 -17 36 -14 50 5 31 7 -7 18 -12 26 -12 8 0 65 -24 126 -54 161
-78 257 -174 291 -293 l16 -55 -43 -71 c-60 -101 -59 -97 -64 -248 -4 -123
-19 -233 -39 -283 -7 -16 -5 -17 12 -7 27 14 128 125 161 176 63 97 77 218 43
355 -10 41 -22 104 -25 140 l-7 65 26 -30 c73 -84 77 -94 69 -229 -7 -120 -6
-125 21 -182 44 -94 61 -150 67 -217 5 -43 21 -34 41 25 36 101 47 159 47 244
0 93 -13 126 -86 229 -32 45 -29 43 38 -25 79 -81 94 -99 149 -175 44 -61 80
-123 116 -200 26 -58 22 -136 -12 -218 -29 -73 -30 -120 -5 -242 6 -27 14 -95
18 -150 l7 -100 41 60 c71 104 103 179 123 285 13 75 -2 147 -57 273 -11 23
-29 69 -41 102 -13 33 -31 83 -42 110 -11 30 -13 43 -5 32 12 -16 15 -14 40
23 14 22 26 43 26 48 0 5 8 16 18 25 16 15 17 11 13 -69 -4 -107 0 -121 49
-180 38 -46 88 -139 105 -192 17 -57 44 53 44 183 1 85 -3 108 -23 150 -13 28
-36 61 -51 75 -15 14 -40 44 -56 67 -25 36 -29 50 -28 110 0 37 6 95 13 128
l13 60 18 -35 c10 -19 32 -62 50 -95 26 -51 57 -133 95 -255 41 -131 54 -242
54 -445 -1 -283 -18 -333 -151 -443 -60 -49 -102 -128 -122 -227 -19 -88 -42
-156 -64 -188 -10 -16 -16 -31 -12 -35 4 -4 10 -1 12 6 3 6 9 12 15 12 19 0
144 88 192 136 61 61 96 135 107 227 5 40 13 92 17 117 8 44 9 42 17 -44 12
-134 -3 -202 -60 -277 -75 -98 -88 -138 -81 -244 11 -179 18 -260 22 -274 6
-18 71 71 113 154 67 135 62 81 63 745 1 625 2 599 -38 810 -23 124 -66 257
-150 461 -36 90 -81 214 -99 274 -39 131 -42 138 -66 192 -10 24 -19 46 -19
51 0 4 -18 42 -39 85 -109 212 -236 349 -482 519 -61 42 -311 188 -322 188 -3
0 -43 18 -90 39 -76 36 -310 119 -379 135 -14 3 -33 9 -41 12 -10 3 -17 -1
-20 -13 -3 -10 -5 54 -6 142 -1 158 -14 256 -47 353 -8 23 -14 45 -14 47 0 3
28 -6 63 -18 136 -50 285 -151 443 -304 80 -77 93 -93 98 -130 4 -28 12 -44
24 -47 23 -8 79 -61 113 -106 14 -19 48 -81 75 -138 l49 -102 88 -60 c92 -63
112 -71 103 -42 -3 9 -10 41 -16 70 -26 140 -92 274 -219 447 -67 90 -275 293
-370 360 -100 70 -266 156 -348 180 -32 9 -69 21 -83 25 -94 31 -142 35 -405
33 l-270 -3 -53 26 c-32 16 -104 73 -182 145 -84 78 -137 119 -152 120 -20 1
-19 2 7 10 46 15 272 14 335 -1 127 -30 259 -108 358 -214 50 -53 56 -56 110
-61 31 -3 76 -8 100 -10 l43 -5 -48 62 c-119 153 -366 310 -563 360 -70 17
-114 21 -245 21 -229 0 -420 -35 -650 -119 -55 -20 -126 -45 -157 -56 -76 -27
-117 -20 -154 30 -45 60 -175 200 -217 233 l-38 31 -46 -16 c-47 -16 -71 -20
-61 -11 10 11 124 48 188 61 138 29 319 6 467 -62 17 -8 34 -14 39 -14 4 0 52
-25 107 -56 l100 -56 61 11 c34 6 74 15 90 19 l29 8 -54 35 c-142 94 -237 140
-394 191 -163 53 -391 64 -541 27 -49 -12 -107 -30 -131 -40 -32 -14 -41 -15
-37 -4 6 15 -24 26 -131 50 -77 17 -273 17 -349 0z m596 -284 c83 -91 132
-174 153 -263 17 -74 9 -99 -55 -173 l-43 -50 6 35 c25 141 19 180 -46 292
l-42 73 -7 -45 c-3 -25 -14 -67 -22 -95 -24 -75 -20 -110 19 -179 43 -77 44
-99 5 -138 -27 -26 -36 -30 -68 -25 -60 10 -122 98 -122 173 0 10 32 51 72 91
l72 73 4 70 c6 94 -6 202 -21 197 -7 -2 -45 -40 -84 -85 l-73 -82 0 -63 c0
-62 -15 -165 -25 -175 -3 -3 -16 0 -29 6 -49 22 -59 125 -20 207 44 97 178
232 231 234 14 1 45 -24 95 -78z m1138 -151 c-8 -5 -24 -9 -35 -9 l-20 0 20 9
c11 5 27 9 35 9 13 1 13 0 0 -9z m-34 -73 c101 -109 148 -178 185 -272 20 -51
23 -78 24 -185 l0 -125 -39 -75 c-26 -50 -56 -91 -93 -125 l-55 -50 7 53 c5
36 3 57 -5 67 -16 19 -40 19 -40 0 0 -8 -4 -23 -9 -33 -5 -9 -22 -42 -36 -72
-33 -67 -119 -171 -123 -149 -1 8 11 57 28 108 61 187 41 265 -115 439 l-30
33 -2 -173 -2 -173 36 -59 c56 -91 47 -155 -35 -243 -45 -48 -84 -77 -177
-130 -108 -61 -115 -65 -185 -112 -78 -54 -232 -171 -241 -184 -10 -15 -36 42
-44 95 -9 61 24 175 63 220 28 30 29 31 121 29 76 -2 99 2 126 18 40 23 179
71 209 71 37 0 49 14 29 32 -42 38 -138 79 -198 85 -102 9 -135 -6 -235 -108
-48 -49 -91 -89 -95 -89 -14 0 8 87 35 138 l28 52 -30 22 c-30 21 -31 21 -44
3 -13 -18 -14 -18 -14 4 0 56 55 212 108 306 138 245 441 501 727 614 28 11
55 20 61 20 6 1 33 -23 60 -52z m-3506 -374 c-82 -161 -160 -429 -160 -546 0
-43 -34 -119 -61 -135 -17 -11 -66 -22 -234 -53 -141 -27 -333 -89 -377 -123
-10 -7 -22 -25 -28 -40 -11 -29 -14 -146 -4 -146 4 0 38 17 78 38 133 71 183
87 276 87 47 1 92 4 100 8 40 19 129 30 266 34 305 9 407 -38 462 -212 25 -78
62 -165 123 -292 27 -57 49 -106 49 -111 0 -9 -124 -32 -176 -32 -57 0 -156
29 -192 57 -61 46 -66 62 -52 157 12 77 11 90 -5 132 -23 62 -79 121 -173 185
-66 45 -74 49 -68 28 9 -28 42 -169 58 -249 16 -77 31 -105 107 -190 97 -108
96 -104 18 -98 -49 4 -78 13 -111 34 -54 34 -73 65 -87 141 -18 94 -50 143
-134 200 -34 23 -156 75 -162 69 -3 -2 5 -22 15 -43 11 -21 28 -65 37 -98 57
-202 62 -209 204 -265 58 -22 121 -61 121 -74 0 -17 -271 0 -355 23 -227 63
-366 211 -412 440 -20 100 -11 176 38 312 51 144 138 278 264 404 101 102 248
215 262 201 14 -14 -28 -78 -103 -157 -49 -51 -86 -98 -89 -115 -14 -62 -63
-177 -98 -228 l-20 -28 24 7 c67 21 183 76 211 100 68 57 82 88 84 183 2 111
10 147 45 198 33 49 77 88 161 145 35 24 72 53 83 66 30 34 36 28 15 -14z
m522 23 c100 -27 135 -43 287 -130 86 -49 235 -153 325 -226 90 -73 276 -249
276 -261 0 -5 -18 -9 -40 -9 l-39 0 17 -30 c14 -23 26 -31 62 -36 71 -11 103
-29 125 -71 11 -21 65 -83 121 -138 56 -55 120 -128 144 -163 43 -65 94 -171
86 -179 -8 -8 -59 24 -130 81 -84 67 -119 80 -203 73 -88 -7 -173 -51 -253
-132 -35 -36 -61 -67 -58 -70 3 -3 27 -1 53 6 48 12 156 3 262 -23 33 -8 55
-6 105 7 104 29 143 30 178 5 30 -21 70 -73 108 -142 29 -51 46 -147 38 -215
-4 -32 -10 -116 -15 -188 -7 -120 -15 -165 -28 -165 -28 0 -143 51 -172 77
-50 43 -72 90 -82 182 -15 135 -27 176 -66 221 -20 23 -52 52 -72 65 -55 34
-280 109 -236 77 13 -8 55 -67 72 -99 36 -70 74 -144 93 -185 13 -28 39 -61
63 -80 59 -44 107 -90 119 -111 9 -17 7 -17 -14 -6 -26 14 -150 99 -158 109
-9 11 -164 106 -235 144 -87 47 -135 93 -169 159 -32 64 -32 73 -1 177 30 100
31 146 6 219 -11 31 -27 93 -36 138 l-18 81 -33 -50 c-60 -89 -107 -195 -112
-252 -5 -66 6 -101 68 -213 52 -91 85 -173 70 -173 -16 0 -129 89 -155 124
-41 54 -75 143 -65 175 32 104 34 139 13 213 -26 92 -41 160 -49 222 -7 56 -8
55 -68 -58 -44 -84 -69 -180 -60 -235 4 -22 28 -78 55 -123 26 -45 46 -85 43
-87 -9 -9 -66 68 -99 135 -43 86 -59 139 -80 269 -26 150 -5 278 71 442 19 41
34 76 34 78 0 2 27 50 60 107 33 56 60 108 60 114 0 11 -112 84 -129 84 -17 0
-142 -194 -215 -335 l-41 -80 -5 110 c-6 120 -10 134 -80 240 -26 39 -49 78
-53 88 -10 27 -23 20 -35 -20 -51 -168 -45 -209 50 -337 64 -86 73 -110 65
-161 -15 -92 -63 -128 -163 -123 -46 3 -72 11 -101 30 -37 24 -40 31 -52 98
-15 84 -3 188 35 307 23 71 62 163 74 173 3 3 14 22 25 42 10 20 28 39 40 41
54 11 268 6 317 -7z m4028 4 c19 -6 9 -8 -38 -9 -55 -1 -63 -3 -59 -18 46
-165 56 -405 24 -543 -52 -221 -191 -465 -362 -635 -61 -60 -117 -109 -150
-131 -17 -10 -32 -21 -35 -24 -27 -28 -249 -144 -258 -135 -3 3 6 20 19 39 19
29 32 36 70 41 119 17 221 131 268 301 17 64 14 68 -31 32 -63 -50 -85 -62
-168 -91 -91 -33 -118 -60 -149 -152 -42 -125 -92 -177 -247 -258 -40 -20 -74
-37 -78 -37 -17 0 45 77 118 147 98 94 111 124 103 243 -4 71 -39 180 -57 180
-4 0 -14 -15 -21 -32 -7 -18 -35 -68 -62 -112 -74 -119 -87 -156 -87 -245 0
-71 -3 -81 -32 -122 -45 -63 -105 -125 -163 -168 -57 -43 -144 -95 -149 -90
-1 2 -9 27 -16 54 -21 82 -25 83 -57 14 -41 -88 -107 -158 -187 -199 -37 -18
-69 -31 -71 -28 -3 3 -6 55 -6 115 0 228 95 436 291 633 98 100 195 168 330
233 225 108 323 112 510 19 64 -31 85 -37 141 -37 68 0 92 8 166 57 41 28 133
136 133 157 0 13 -12 14 -26 3 -23 -21 -101 -32 -216 -32 -98 0 -135 -4 -181
-20 -68 -24 -115 -25 -165 -4 l-37 16 65 24 c163 59 301 83 538 91 l194 6 10
26 c15 39 35 121 41 167 l5 42 -52 5 c-28 4 -96 10 -150 13 l-99 7 67 34 c81
41 132 85 153 133 9 21 18 78 21 143 5 108 -1 125 -29 90 -8 -9 -50 -47 -95
-84 -85 -71 -100 -97 -119 -213 -12 -74 -102 -120 -180 -93 -51 18 -67 48 -61
112 10 107 100 251 184 291 93 45 133 53 277 52 77 0 151 -4 165 -8z m63 -17
c-7 -2 -19 -2 -25 0 -7 3 -2 5 12 5 14 0 19 -2 13 -5z m67 -696 c-6 -33 -10
-60 -8 -62 2 -1 66 -19 143 -38 131 -34 239 -69 312 -102 17 -8 34 -15 38 -15
15 0 214 -105 289 -153 147 -93 199 -138 228 -197 15 -30 30 -68 33 -85 l6
-29 21 32 c11 18 23 32 27 32 9 0 56 -51 91 -100 35 -48 94 -163 118 -230 19
-52 26 -78 51 -192 27 -116 9 -384 -33 -523 -9 -27 -16 -79 -16 -115 l0 -65
-21 40 c-90 169 -142 239 -304 400 -114 114 -147 144 -260 234 -44 35 -82 65
-85 68 -3 3 18 2 45 -2 119 -15 112 -11 163 -87 44 -67 52 -74 145 -121 54
-28 121 -70 148 -94 33 -31 49 -40 49 -29 0 32 -40 166 -61 203 -48 86 -63
104 -117 138 -55 34 -59 35 -157 35 -85 0 -190 13 -317 37 -34 6 -28 17 20 40
157 72 358 275 411 415 9 24 6 29 -37 65 -66 54 -123 96 -126 92 -1 -2 -20
-40 -41 -84 -53 -108 -170 -228 -271 -278 -64 -32 -183 -71 -192 -63 -5 6 68
59 132 96 103 61 130 113 141 274 3 50 8 101 11 114 6 32 -7 27 -39 -16 -16
-20 -66 -75 -111 -122 -74 -75 -85 -91 -96 -140 -23 -100 -43 -141 -86 -172
-43 -31 -120 -47 -222 -48 l-54 0 24 28 c13 16 65 57 116 92 99 68 104 74 173
240 13 30 31 70 41 89 11 18 17 35 15 37 -5 6 -141 -43 -189 -67 -52 -27 -106
-75 -122 -113 -8 -17 -22 -69 -30 -116 -14 -76 -19 -88 -51 -116 -20 -18 -53
-35 -73 -39 -50 -10 -153 -7 -230 6 -70 13 -70 11 -30 99 48 105 249 358 311
392 15 8 42 7 103 -2 66 -10 106 -11 206 0 86 9 139 9 176 3 28 -6 52 -7 52
-4 0 9 -89 92 -126 118 -55 38 -107 55 -174 55 -71 1 -96 -9 -199 -83 -30 -22
-55 -38 -57 -37 -1 2 15 55 36 118 21 63 44 151 51 195 11 62 15 72 17 45 2
-19 -2 -61 -8 -93z m-2263 -2972 c40 -42 43 -49 43 -101 0 -54 -16 -95 -48
-121 -13 -11 -13 -19 -3 -55 20 -71 61 -211 70 -243 5 -16 12 -40 16 -52 l6
-23 -190 0 c-105 0 -191 2 -191 5 0 2 6 24 14 47 12 41 22 73 51 178 7 25 19
65 26 89 11 35 11 45 1 49 -21 7 -52 79 -52 122 0 51 20 91 62 124 27 21 44
26 92 26 57 0 61 -2 103 -45z m3829 -957 c-7 -46 -53 -141 -90 -192 -13 -17
-38 -58 -55 -90 -34 -64 -37 -62 -19 11 33 138 87 255 135 293 14 11 28 20 31
20 2 0 2 -19 -2 -42z m-179 -370 c-3 -8 -6 -5 -6 6 -1 11 2 17 5 13 3 -3 4
-12 1 -19z m-6619 -314 c19 -6 9 -18 -51 -57 -102 -68 -253 -108 -337 -89 -35
8 -39 10 -17 11 31 1 77 43 103 92 26 50 56 59 179 53 61 -3 116 -7 123 -10z
m4609 -26 c68 -31 140 -79 197 -129 82 -73 216 -249 189 -249 -4 0 -44 11 -88
25 -44 14 -85 25 -92 25 -7 0 -37 11 -67 25 -30 14 -59 25 -63 25 -11 0 -95
88 -115 121 -16 25 -68 167 -68 184 0 11 52 -1 107 -27z m433 -492 c-1 -32
-16 0 -24 49 l-6 40 15 -34 c8 -18 15 -43 15 -55z m-1037 -15 l22 -25 -30 22
c-16 13 -41 32 -55 43 l-25 20 33 -18 c18 -10 43 -29 55 -42z m1227 -43 c13
-55 15 -58 49 -64 20 -3 75 -17 123 -31 68 -20 85 -29 74 -37 -17 -14 -34 -82
-42 -174 -3 -41 -9 -85 -13 -99 -6 -24 -7 -24 -81 30 -107 78 -116 100 -123
297 -3 85 -4 151 -2 145 1 -5 8 -36 15 -67z m-183 0 c-3 -7 -5 -2 -5 12 0 14
2 19 5 13 2 -7 2 -19 0 -25z m794 -29 c4 -18 6 -36 3 -38 -6 -6 -131 19 -174
35 l-35 13 50 0 c28 1 68 8 90 16 51 18 58 16 66 -26z m-6017 2 c-2 -3 -12 3
-22 13 -16 17 -16 18 5 5 12 -7 20 -15 17 -18z m144 12 c63 -39 98 -84 44 -58
-15 8 -55 17 -87 20 -87 9 -91 12 -64 35 30 24 71 25 107 3z m5879 -100 c-3
-10 -5 -4 -5 12 0 17 2 24 5 18 2 -7 2 -21 0 -30z m-320 -19 c-3 -3 -12 -4
-19 -1 -8 3 -5 6 6 6 11 1 17 -2 13 -5z m63 -14 c13 -9 13 -10 0 -9 -8 0 -24
4 -35 9 l-20 9 20 0 c11 0 27 -4 35 -9z m-5488 -47 c5 -21 12 -83 16 -139 l7
-101 -34 9 c-53 15 -94 47 -131 101 -19 28 -56 73 -82 100 l-46 48 30 -6 c44
-10 197 5 211 20 15 16 17 15 29 -32z m2958 -283 c-6 -11 -13 -20 -16 -20 -2
0 0 9 6 20 6 11 13 20 16 20 2 0 0 -9 -6 -20z m2357 -32 c-2 -13 -4 -5 -4 17
-1 22 1 32 4 23 2 -10 2 -28 0 -40z m-2377 -2 c0 -3 -4 -8 -10 -11 -5 -3 -10
-1 -10 4 0 6 5 11 10 11 6 0 10 -2 10 -4z m683 -22 c-3 -10 8 -29 31 -53 l36
-37 -72 -52 c-39 -29 -73 -50 -76 -48 -10 11 25 125 50 164 30 43 42 54 31 26z
m-2871 -149 c26 -31 68 -108 68 -122 -1 -4 -12 14 -26 40 -27 52 -33 53 -95
21 -14 -7 -50 -15 -80 -19 -37 -4 -47 -3 -33 4 22 10 53 46 85 99 17 29 21 31
38 20 10 -7 29 -26 43 -43z m4122 4 c24 -41 29 -171 8 -204 -12 -18 -13 -17
-8 13 3 17 9 45 12 60 5 23 1 30 -21 40 -14 7 -31 16 -38 22 -81 65 -81 64
-22 94 38 20 44 18 69 -25z m-3258 -201 c-17 -35 -32 -57 -34 -51 -4 13 49
113 59 113 3 0 -8 -28 -25 -62z m45 -159 c45 -44 107 -99 138 -122 95 -71 180
-127 191 -127 5 0 10 -4 10 -9 0 -5 8 -11 18 -14 9 -3 42 -20 72 -38 63 -36
144 -78 212 -108 26 -12 50 -26 54 -33 10 -16 -88 -3 -153 21 -29 10 -75 22
-103 26 -27 4 -50 10 -50 14 0 4 18 13 40 20 22 7 38 16 35 21 -10 16 -128 78
-161 85 -18 3 -57 -1 -92 -9 -70 -19 -72 -19 -72 -7 0 6 15 11 33 13 31 3 30
4 -66 77 -95 71 -147 127 -169 181 -13 31 -27 90 -22 90 2 0 41 -36 85 -81z
m1349 58 c0 -1 -24 -25 -52 -52 l-53 -50 50 53 c46 48 55 57 55 49z m-476
-178 c-19 -21 -19 -21 63 -99 45 -43 74 -76 65 -73 -10 2 -49 -18 -89 -46 -40
-27 -73 -46 -73 -42 0 5 -35 27 -77 49 -84 43 -232 132 -220 132 4 0 32 -14
62 -31 53 -30 54 -30 82 -12 15 9 30 20 33 23 3 3 30 22 60 43 30 20 66 45 80
56 32 27 38 26 14 0z m906 -79 c13 -8 13 -10 -2 -10 -9 0 -20 5 -23 10 -8 13
5 13 25 0z m-629 -17 c13 -16 12 -17 -3 -4 -10 7 -18 15 -18 17 0 8 8 3 21
-13z m-101 -98 c11 -13 10 -14 -4 -9 -9 3 -16 10 -16 15 0 13 6 11 20 -6z
m121 -102 c17 -16 32 -21 44 -17 13 5 16 4 11 -4 -4 -7 -12 -12 -17 -12 -6 0
-29 -9 -51 -20 -52 -25 -69 -25 -119 0 -22 12 -44 18 -49 15 -6 -3 -10 -4 -10
-1 0 3 26 26 57 51 56 43 58 44 83 28 14 -8 37 -26 51 -40z m134 17 c-3 -5
-11 -10 -16 -10 -6 0 -7 5 -4 10 3 6 11 10 16 10 6 0 7 -4 4 -10z m-495 -5 c0
-6 -56 -35 -67 -35 -4 1 8 9 27 20 39 22 40 22 40 15z m455 -15 c-3 -5 -11
-10 -16 -10 -6 0 -7 5 -4 10 3 6 11 10 16 10 6 0 7 -4 4 -10z m-305 -55 c-7
-9 -15 -13 -19 -10 -3 3 1 10 9 15 21 14 24 12 10 -5z"/>
<path d="M8970 13759 c0 -6 8 -23 19 -37 27 -40 68 -150 76 -207 9 -70 31
-113 82 -162 24 -24 43 -45 43 -48 0 -3 10 -21 22 -40 l23 -34 22 87 c28 112
29 177 2 239 -34 80 -123 156 -229 196 -54 20 -60 21 -60 6z"/>
<path d="M8640 13388 c-45 -33 -188 -108 -208 -108 -24 0 -74 -56 -103 -117
l-31 -65 33 -34 c37 -39 49 -40 127 -18 101 30 178 130 217 282 24 92 19 100
-35 60z"/>
<path d="M5080 12590 c-14 -11 -29 -20 -34 -20 -4 0 -26 -14 -48 -32 -51 -40
-78 -102 -78 -179 0 -57 18 -139 31 -139 3 0 20 23 38 50 18 28 38 56 44 63
40 41 109 139 128 181 l22 50 -29 23 c-35 28 -42 28 -74 3z"/>
<path d="M6456 13188 c27 -77 99 -204 139 -243 61 -62 107 -80 195 -79 99 0
146 15 181 56 15 18 28 35 29 38 0 4 -15 11 -32 18 -18 6 -55 29 -81 51 -76
63 -105 78 -212 105 -55 15 -130 41 -167 60 l-66 33 14 -39z"/>
<path d="M6965 12847 c-50 -23 -148 -55 -187 -63 -21 -3 -38 -10 -38 -14 0
-14 93 -67 173 -99 52 -20 119 -14 168 17 53 34 105 85 114 111 5 16 -3 22
-51 36 -81 23 -144 28 -179 12z"/>
<path d="M7258 12153 c32 -32 72 -76 88 -98 75 -102 125 -150 182 -172 42 -16
45 -15 80 5 20 11 38 30 40 41 5 34 -47 128 -93 169 -63 55 -229 112 -329 112
-26 0 -25 -2 32 -57z"/>
<path d="M8856 12396 c-49 -31 -130 -109 -165 -161 -71 -104 -86 -237 -37
-332 23 -47 46 -69 46 -45 0 4 23 35 51 67 57 66 84 119 93 180 15 93 39 231
52 288 8 32 9 32 -40 3z"/>
<path d="M11432 12188 c-12 -19 -25 -60 -30 -92 -15 -94 7 -162 94 -291 22
-33 46 -75 53 -92 16 -40 29 -42 37 -5 3 15 10 40 15 56 5 16 9 69 9 118 0 97
-14 138 -82 228 -18 25 -42 60 -54 79 l-21 33 -21 -34z"/>
<path d="M10455 13328 c12 -57 77 -178 112 -209 79 -69 160 -76 267 -25 l69
34 -37 12 c-20 6 -60 33 -89 59 -37 34 -73 55 -128 74 -42 15 -102 40 -134 57
-31 16 -59 30 -62 30 -2 0 -2 -15 2 -32z"/>
<path d="M4499 12453 c-79 -81 -199 -245 -199 -272 0 -6 -3 -11 -8 -11 -4 0
-13 -15 -21 -32 -17 -40 -48 -112 -66 -153 -19 -42 -65 -183 -65 -198 0 -11
-41 -120 -112 -297 -17 -41 -50 -133 -73 -205 -111 -336 -127 -530 -74 -895 6
-41 12 -229 14 -416 4 -366 5 -375 60 -484 23 -45 162 -196 172 -187 2 3 -3
38 -11 78 -8 41 -17 103 -20 139 -9 119 -25 164 -87 261 -56 88 -59 96 -58
153 0 51 2 57 10 36 36 -89 75 -153 111 -182 41 -32 226 -109 242 -100 4 2 4
7 0 11 -27 19 -100 164 -135 266 -9 27 -43 69 -99 125 -71 71 -87 93 -98 135
-8 28 -18 63 -23 78 -4 16 -16 97 -26 182 -16 144 -16 161 0 299 17 150 40
249 83 369 28 81 82 197 112 247 l22 35 0 -132 0 -131 -55 -72 c-30 -40 -59
-87 -64 -104 -5 -17 -12 -94 -15 -171 -4 -77 -9 -153 -12 -170 -6 -28 -2 -26
59 34 43 42 77 87 99 130 32 64 32 69 30 185 -1 66 0 117 2 115 2 -2 20 -33
39 -68 l35 -64 17 33 c19 37 17 83 -8 171 -36 125 -47 342 -27 496 12 88 40
183 76 261 13 29 24 54 24 57 0 14 72 118 111 160 81 88 106 119 128 163 20
38 21 52 15 128 -4 46 -10 84 -14 84 -3 0 -45 -39 -91 -87z"/>
<path d="M4489 12157 c-47 -43 -90 -109 -120 -182 -21 -53 -24 -75 -24 -195 0
-180 6 -192 51 -111 19 34 39 68 45 74 5 7 30 39 54 72 60 81 70 130 51 264
-8 56 -16 104 -18 107 -3 2 -20 -11 -39 -29z"/>
<path d="M6015 11628 c-43 -48 -63 -113 -70 -229 -3 -57 -11 -123 -17 -147 -6
-23 -8 -45 -6 -48 3 -3 41 29 84 69 104 98 127 143 132 263 l4 91 -35 16 c-49
23 -60 22 -92 -15z"/>
<path d="M9155 11453 c-11 -3 -29 -12 -40 -19 -19 -14 -19 -14 3 -14 30 0 65
-39 82 -92 22 -69 40 -100 83 -146 63 -65 120 -82 277 -82 72 0 130 3 130 8
-1 4 -24 25 -52 47 -53 42 -111 107 -145 165 -54 89 -128 131 -238 136 -44 1
-89 0 -100 -3z"/>
<path d="M4715 11318 c-16 -13 -35 -27 -40 -33 -37 -37 -65 -121 -65 -195 0
-50 33 -152 62 -191 34 -45 16 -53 -78 -35 -216 41 -224 41 -224 9 0 -23 57
-101 124 -167 80 -79 225 -112 372 -85 95 17 95 18 4 64 -102 51 -126 74 -111
104 14 26 13 57 -4 105 -13 37 -12 49 22 184 36 140 36 146 22 201 -16 65 -36
74 -84 39z"/>
<path d="M11568 10890 c-14 -11 -33 -37 -41 -57 -39 -96 -100 -146 -225 -184
-48 -14 -100 -60 -109 -98 -13 -53 -86 -178 -131 -223 l-46 -48 31 0 c91 0
225 55 286 118 51 53 79 102 111 198 l22 66 31 -26 31 -26 7 42 c4 24 23 74
41 112 34 69 41 109 26 134 -7 10 -14 8 -34 -8z"/>
<path d="M4314 10668 c-19 -36 -20 -99 -3 -188 19 -105 44 -135 179 -225 52
-34 106 -74 119 -89 14 -14 28 -26 33 -26 12 0 10 57 -7 136 -34 164 -71 227
-183 311 -41 31 -82 69 -91 85 -20 36 -27 35 -47 -4z"/>
<path d="M11430 10468 c-52 -152 -48 -184 48 -387 l49 -103 20 59 c39 112 48
158 47 258 0 88 -3 105 -25 140 -35 57 -92 135 -99 135 -3 0 -21 -46 -40 -102z"/>
<path d="M7149 8166 c-39 -20 -97 -62 -192 -137 -18 -15 -19 -23 -13 -85 9
-98 17 -134 28 -134 5 0 33 16 63 34 104 67 135 79 162 65 22 -12 81 -71 127
-129 31 -39 103 -180 120 -235 72 -239 109 -337 148 -388 13 -17 16 -16 63 17
112 79 108 71 71 144 -29 57 -52 123 -77 222 -65 254 -154 445 -258 554 -94
99 -155 117 -242 72z"/>
<path d="M7864 7307 c-47 -38 -163 -117 -173 -117 -5 0 -11 -4 -13 -8 -1 -4
-21 -19 -43 -32 -70 -42 -185 -131 -197 -153 -20 -38 -13 -127 15 -180 24 -45
152 -197 166 -197 8 1 101 87 101 94 0 3 -19 32 -43 63 -46 63 -67 103 -67
132 0 23 47 66 202 186 28 22 78 65 110 95 l59 55 -44 43 -44 43 -29 -24z"/>
<path d="M3860 4926 c0 -27 7 -39 29 -55 16 -12 41 -44 55 -73 l26 -52 0 -773
0 -772 -23 -54 c-13 -29 -38 -65 -55 -79 -25 -21 -32 -35 -32 -62 l0 -36 734
0 734 0 6 28 c4 24 11 80 22 177 11 101 24 204 30 233 6 31 6 32 -27 32 -29 0
-38 -6 -62 -44 -41 -65 -133 -146 -208 -183 -118 -58 -153 -63 -418 -63 l-241
0 0 800 c0 793 0 801 21 845 12 25 36 58 55 75 25 21 34 38 34 60 l0 30 -340
0 -340 0 0 -34z"/>
<path d="M8780 4953 c-40 -6 -165 -29 -292 -54 l-118 -23 0 -32 c0 -24 8 -38
31 -55 16 -13 41 -45 55 -71 l24 -47 0 -744 c0 -717 -1 -745 -20 -784 -10 -22
-35 -54 -55 -71 -28 -25 -35 -39 -35 -67 l0 -35 340 0 340 0 0 36 c0 27 -7 41
-26 56 -14 11 -37 39 -52 62 l-27 41 -3 264 -3 265 23 17 23 18 51 -127 c27
-70 58 -144 67 -166 9 -21 17 -44 17 -50 0 -7 4 -16 8 -21 5 -6 17 -32 27 -60
10 -27 29 -73 42 -102 12 -28 23 -55 23 -59 0 -22 56 -117 79 -133 53 -37 89
-41 332 -41 l239 0 0 35 c0 31 -5 37 -42 56 -52 26 -134 103 -153 144 -8 17
-24 55 -35 85 -12 30 -28 71 -37 90 -8 19 -19 44 -23 55 -26 63 -72 156 -83
167 -7 7 -29 34 -49 60 -50 61 -146 133 -232 173 -63 30 -67 34 -48 44 11 6
26 17 34 24 17 16 195 162 318 261 52 41 137 97 188 123 83 42 92 50 92 75 l0
28 -235 0 -235 0 0 -24 c0 -13 7 -37 15 -52 32 -63 12 -103 -95 -189 -14 -11
-47 -38 -75 -60 -27 -22 -58 -47 -69 -55 -10 -8 -35 -29 -55 -46 -20 -17 -53
-43 -73 -58 l-38 -28 0 541 0 541 -67 -1 c-38 -1 -79 -4 -93 -6z"/>
<path d="M11915 4539 c-48 -14 -102 -65 -131 -125 -23 -47 -26 -63 -21 -117 6
-78 25 -115 86 -170 53 -47 104 -67 171 -67 l43 0 -6 -177 c-7 -240 -39 -412
-107 -590 -71 -184 -158 -284 -284 -326 -65 -22 -98 -21 -146 3 -116 59 -130
158 -130 937 l0 543 -310 0 -310 0 0 -43 c0 -36 6 -48 36 -78 20 -18 45 -52
57 -74 20 -39 21 -58 28 -555 5 -410 10 -526 22 -570 51 -189 137 -315 258
-382 79 -43 127 -53 249 -52 104 1 122 4 196 33 45 17 107 50 138 72 l56 40
-30 -51 c-16 -28 -30 -53 -30 -55 0 -6 -90 -155 -115 -190 -114 -160 -220
-277 -300 -331 -65 -44 -153 -65 -199 -48 -13 5 -12 11 10 39 62 82 79 186 45
275 -44 115 -120 173 -230 173 -78 0 -115 -16 -171 -74 -52 -54 -74 -122 -74
-229 1 -236 158 -380 414 -380 180 0 313 64 481 232 155 156 265 330 397 628
21 48 101 277 120 345 31 108 77 319 91 420 6 39 15 102 21 142 16 113 13 454
-5 541 -29 136 -79 222 -149 256 -37 17 -121 20 -171 5z"/>
<path d="M7595 4415 c-83 -16 -249 -79 -275 -105 -3 -3 -23 -18 -45 -35 -188
-140 -286 -347 -286 -605 -1 -133 12 -208 51 -300 85 -200 255 -341 482 -400
83 -21 269 -28 324 -11 16 5 49 15 74 22 147 43 277 164 361 335 41 83 77 186
79 227 0 4 -12 7 -27 7 -24 0 -33 -9 -56 -54 -26 -50 -129 -166 -148 -166 -4
0 -14 -6 -21 -13 -22 -21 -100 -56 -148 -67 -92 -20 -221 -7 -290 30 -36 19
-120 100 -145 140 -49 79 -67 148 -72 285 -6 155 5 224 52 322 62 133 183 223
296 223 28 0 59 -5 70 -11 19 -10 19 -11 -6 -41 -14 -17 -32 -46 -40 -65 -18
-43 -19 -142 -3 -180 49 -111 176 -180 287 -153 126 30 194 116 195 245 1 76
-12 118 -56 181 -24 34 -117 114 -132 114 -3 0 -29 11 -58 24 -70 32 -81 35
-168 52 -89 17 -198 16 -295 -1z"/>
<path d="M5720 4380 c-23 -7 -95 -20 -280 -51 -92 -16 -91 -15 -88 -49 2 -21
12 -39 34 -55 18 -14 43 -42 56 -62 23 -38 23 -41 29 -443 6 -384 7 -408 28
-469 70 -200 211 -301 422 -301 125 0 224 28 312 89 55 38 99 78 122 115 l19
29 9 -29 c29 -94 88 -162 164 -188 137 -47 333 4 400 103 30 44 31 76 4 61
-32 -17 -76 -12 -97 11 -18 20 -19 47 -22 636 l-3 615 -102 -5 c-56 -3 -124
-11 -152 -16 -48 -10 -186 -36 -270 -49 -35 -6 -40 -11 -43 -36 -3 -23 6 -38
40 -75 25 -25 50 -59 56 -74 9 -20 12 -132 12 -382 0 -337 -1 -357 -21 -411
-25 -66 -87 -139 -137 -160 -57 -23 -122 -18 -173 14 -35 23 -51 43 -74 93
l-30 64 -3 518 -3 517 -92 -1 c-51 0 -103 -4 -117 -9z"/>
<path d="M10240 3815 c-191 -31 -300 -116 -360 -281 -19 -53 -21 -77 -18 -171
3 -100 6 -114 37 -178 53 -108 131 -173 247 -206 61 -17 220 -8 269 16 117 56
196 152 236 288 12 43 -22 34 -49 -13 -90 -158 -326 -185 -423 -49 l-22 32 34
-6 c98 -18 120 -18 189 -3 40 9 89 25 109 36 44 23 122 102 147 150 25 49 25
181 0 230 -43 82 -132 142 -232 155 -27 3 -58 8 -69 9 -11 2 -54 -2 -95 -9z
m126 -113 c32 -26 44 -55 44 -110 0 -97 -78 -201 -195 -257 -82 -40 -85 -38
-93 60 -5 64 15 165 43 222 15 31 57 73 90 91 30 17 87 14 111 -6z"/>
<path d="M4302 2448 c-18 -18 -14 -53 8 -73 44 -40 107 25 69 71 -14 17 -60
19 -77 2z"/>
<path d="M5580 2225 l0 -235 40 0 40 0 0 114 c0 112 1 115 26 135 33 26 58 27
84 1 18 -18 20 -33 20 -135 l0 -115 40 0 40 0 0 113 c0 138 -11 182 -50 202
-37 19 -99 19 -124 0 -11 -8 -23 -15 -28 -15 -4 0 -8 38 -8 85 l0 85 -40 0
-40 0 0 -235z"/>
<path d="M5950 2225 l0 -235 40 0 40 0 0 235 0 235 -40 0 -40 0 0 -235z"/>
<path d="M7370 2225 l0 -235 45 0 45 0 0 235 0 235 -45 0 -45 0 0 -235z"/>
<path d="M7712 2448 c-20 -20 -15 -66 9 -78 49 -27 96 20 69 69 -12 24 -58 29
-78 9z"/>
<path d="M9110 2225 l0 -235 40 0 40 0 0 235 0 235 -40 0 -40 0 0 -235z"/>
<path d="M9920 2225 l0 -235 45 0 44 0 3 72 c2 45 7 73 15 75 7 3 28 -27 50
-71 l37 -76 48 0 47 0 -31 58 c-17 31 -39 71 -49 88 l-19 32 45 68 c25 38 45
72 45 77 0 4 -17 7 -38 7 -28 0 -44 -6 -58 -23 -25 -31 -42 -57 -54 -84 -5
-13 -16 -23 -25 -23 -13 0 -15 21 -15 135 l0 135 -45 0 -45 0 0 -235z"/>
<path d="M6168 2439 c-45 -26 -5 -104 41 -80 36 20 36 62 0 81 -21 12 -20 12
-41 -1z"/>
<path d="M6297 2432 c-22 -24 -21 -45 1 -65 24 -22 35 -21 55 1 22 24 21 45
-1 65 -24 22 -35 21 -55 -1z"/>
<path d="M9326 2434 c-9 -8 -16 -24 -16 -34 0 -19 25 -50 41 -50 12 0 49 37
49 50 0 13 -37 50 -49 50 -5 0 -17 -7 -25 -16z"/>
<path d="M9457 2432 c-22 -24 -21 -45 1 -65 24 -22 35 -21 55 1 22 24 21 45
-1 65 -24 22 -35 21 -55 -1z"/>
<path d="M3868 2424 c-5 -4 -8 -103 -8 -221 l0 -213 110 0 c98 0 116 3 160 25
72 36 104 96 104 191 0 62 -4 78 -29 120 -46 73 -102 98 -230 102 -55 2 -103
0 -107 -4z m243 -110 c33 -34 34 -38 34 -109 0 -71 -1 -75 -34 -109 -33 -34
-39 -36 -98 -36 l-63 0 0 145 0 145 63 0 c59 0 65 -2 98 -36z"/>
<path d="M5004 2396 c-37 -32 -39 -36 -39 -94 0 -54 3 -63 29 -85 16 -14 53
-33 83 -42 62 -20 80 -44 64 -88 -10 -24 -15 -27 -61 -27 -27 0 -50 4 -50 8 0
5 -11 14 -24 20 -19 9 -27 7 -39 -6 -29 -34 -28 -41 10 -66 51 -35 149 -37
195 -5 35 26 58 74 58 123 0 47 -50 98 -113 115 -57 17 -82 41 -73 75 9 35 48
43 102 23 l43 -16 20 28 20 28 -40 21 c-27 15 -59 22 -93 22 -45 0 -58 -5 -92
-34z"/>
<path d="M8770 2409 c-162 -92 -160 -317 2 -400 54 -27 175 -28 221 -2 32 19
32 19 35 111 l3 92 -71 0 -70 0 0 -30 c0 -27 3 -30 33 -30 32 0 32 0 29 -45
l-4 -45 -60 0 c-104 0 -154 56 -146 162 4 50 9 64 36 90 41 42 117 54 170 26
47 -24 56 -23 71 6 17 30 10 41 -39 66 -53 27 -161 27 -210 -1z"/>
<path d="M4300 2155 l0 -165 40 0 40 0 0 165 0 165 -40 0 -40 0 0 -165z"/>
<path d="M4523 2300 c-43 -26 -62 -58 -72 -118 -9 -59 13 -131 50 -163 54 -47
159 -49 214 -4 28 22 29 25 14 40 -15 15 -21 15 -65 3 -78 -22 -113 -7 -128
54 l-6 27 107 3 108 3 -2 33 c-3 68 -21 102 -70 130 -35 19 -113 15 -150 -8z
m131 -62 c29 -41 21 -48 -49 -48 -54 0 -65 3 -65 17 0 50 85 73 114 31z"/>
<path d="M5322 2282 c-39 -39 -52 -74 -52 -141 0 -42 29 -109 56 -132 42 -37
130 -35 177 4 27 22 27 22 8 47 -19 23 -20 24 -39 7 -27 -25 -78 -22 -96 6
-38 59 -22 164 28 182 21 7 35 5 56 -7 27 -15 30 -15 44 1 9 10 16 22 16 27 0
19 -63 44 -111 44 -44 0 -53 -4 -87 -38z"/>
<path d="M6112 2185 c4 -116 8 -140 25 -163 29 -40 80 -50 139 -27 34 13 49
15 52 7 2 -7 19 -12 38 -12 l34 0 0 165 0 165 -40 0 -40 0 0 -123 c0 -123 0
-124 -25 -135 -37 -17 -82 -15 -89 4 -3 9 -6 69 -6 135 l0 119 -46 0 -47 0 5
-135z"/>
<path d="M6524 2309 c-25 -13 -54 -59 -54 -88 0 -37 23 -72 59 -87 93 -41 104
-52 80 -80 -13 -15 -35 -15 -99 1 -19 5 -28 1 -37 -14 -11 -18 -10 -23 12 -37
63 -41 170 -22 200 37 34 64 14 102 -72 140 -66 31 -77 50 -41 73 12 7 27 7
53 -3 38 -13 65 -3 65 25 0 35 -115 57 -166 33z"/>
<path d="M6782 2295 c-36 -31 -48 -75 -32 -116 12 -27 24 -35 103 -68 35 -14
44 -38 24 -59 -15 -14 -23 -14 -68 -3 -43 11 -53 11 -60 0 -16 -25 -4 -44 36
-57 83 -28 164 6 181 75 12 46 -7 76 -66 105 -69 34 -81 44 -74 63 9 22 42 28
75 15 23 -10 32 -10 44 0 23 19 18 38 -15 55 -46 24 -113 20 -148 -10z"/>
<path d="M7089 2297 c-48 -31 -81 -100 -74 -155 7 -60 32 -108 69 -135 44 -31
149 -31 194 2 27 19 30 25 21 43 -8 14 -17 18 -32 13 -84 -25 -138 -18 -155
20 -24 52 -20 54 96 57 l107 3 -2 38 c-3 53 -22 87 -62 114 -46 31 -116 31
-162 0z m129 -49 c5 -7 13 -23 16 -35 7 -22 5 -23 -63 -23 -39 0 -71 4 -71 9
0 4 9 20 21 35 22 28 78 36 97 14z"/>
<path d="M7700 2155 l0 -165 45 0 45 0 0 165 0 165 -45 0 -45 0 0 -165z"/>
<path d="M7870 2155 l0 -165 40 0 40 0 0 114 c0 112 1 115 26 135 35 27 69 27
88 -1 12 -17 16 -49 16 -135 l0 -113 40 0 40 0 0 113 c0 130 -11 179 -45 201
-34 22 -101 20 -134 -3 -27 -19 -27 -19 -39 0 -8 12 -23 19 -42 19 l-30 0 0
-165z"/>
<path d="M8261 2289 c-25 -25 -31 -39 -31 -74 0 -50 19 -71 94 -99 37 -14 46
-22 46 -42 0 -29 -39 -42 -76 -25 -36 16 -52 14 -64 -10 -14 -26 7 -45 61 -54
91 -16 159 27 159 100 0 47 -22 73 -80 95 -46 17 -70 39 -63 56 8 21 40 27 80
13 32 -10 38 -9 50 7 7 10 13 20 13 23 0 16 -67 41 -110 41 -41 0 -53 -5 -79
-31z"/>
<path d="M9272 2185 c4 -116 8 -140 25 -163 29 -40 80 -50 139 -27 34 13 49
15 52 7 2 -7 19 -12 38 -12 l34 0 0 165 0 165 -40 0 -40 0 0 -121 c0 -104 -3
-124 -17 -135 -26 -19 -89 -18 -97 2 -3 9 -6 69 -6 135 l0 119 -46 0 -47 0 5
-135z"/>
<path d="M9705 2308 c-53 -31 -75 -76 -75 -153 0 -89 35 -151 98 -170 33 -10
97 4 127 26 24 19 24 21 9 45 -16 23 -18 24 -40 9 -13 -8 -37 -15 -54 -15 -26
0 -33 6 -47 37 -19 46 -12 127 13 154 20 23 52 24 80 5 21 -15 30 -12 52 16
31 39 -107 78 -163 46z"/>
</g>
</svg>
